<?xml version="1.0" encoding="UTF-8" standalone="no"?>
<!-- Created with Inkscape (http://www.inkscape.org/) -->

<svg
   xmlns:dc="http://purl.org/dc/elements/1.1/"
   xmlns:cc="http://creativecommons.org/ns#"
   xmlns:rdf="http://www.w3.org/1999/02/22-rdf-syntax-ns#"
   xmlns:svg="http://www.w3.org/2000/svg"
   xmlns="http://www.w3.org/2000/svg"
   xmlns:sodipodi="http://sodipodi.sourceforge.net/DTD/sodipodi-0.dtd"
   xmlns:inkscape="http://www.inkscape.org/namespaces/inkscape"
   width="210mm"
   height="297mm"
   viewBox="0 0 210 297"
   version="1.1"
   id="svg8"
   inkscape:version="0.92.4 (5da689c313, 2019-01-14)"
   sodipodi:docname="tss.svg">
  <defs
     id="defs2" />
  <sodipodi:namedview
     id="base"
     pagecolor="#ffffff"
     bordercolor="#666666"
     borderopacity="1.0"
     inkscape:pageopacity="0.0"
     inkscape:pageshadow="2"
     inkscape:zoom="3.959798"
     inkscape:cx="192.90529"
     inkscape:cy="964.24535"
     inkscape:document-units="mm"
     inkscape:current-layer="layer1"
     showgrid="false"
     inkscape:window-width="2560"
     inkscape:window-height="1315"
     inkscape:window-x="-13"
     inkscape:window-y="-13"
     inkscape:window-maximized="1" />
  <metadata
     id="metadata5">
    <rdf:RDF>
      <cc:Work
         rdf:about="">
        <dc:format>image/svg+xml</dc:format>
        <dc:type
           rdf:resource="http://purl.org/dc/dcmitype/StillImage" />
        <dc:title></dc:title>
      </cc:Work>
    </rdf:RDF>
  </metadata>
  <g
     inkscape:label="Layer 1"
     inkscape:groupmode="layer"
     id="layer1">
    <path
       style="opacity:0.98999999;fill:#505050;fill-opacity:1;stroke:#000000;stroke-width:1;stroke-miterlimit:4;stroke-dasharray:none;stroke-opacity:1"
       id="path4540"
       d="m 49.972012,25.338126 c 0.0099,0.893764 -0.04914,1.784203 -0.114919,2.674997 -0.06704,0.705342 -0.07257,1.414938 -0.120364,2.121318 -0.05455,0.806121 -0.151728,1.610905 -0.227396,2.415246 -0.192442,1.686901 -0.326861,3.379369 -0.478039,5.070239 -0.142666,1.117616 -0.370864,2.222135 -0.621861,3.319823 0,0 -0.906457,0.435379 -0.906457,0.435379 v 0 c 0.273566,-1.096645 0.505116,-2.204921 0.662916,-3.324444 0.16714,-1.689629 0.282089,-3.383939 0.478989,-5.070679 0.07508,-0.801806 0.173598,-1.60464 0.224837,-2.408409 0.04497,-0.705364 0.04365,-1.414161 0.109178,-2.118545 0.05562,-0.882148 0.116597,-1.76471 0.07885,-2.649083 0,0 0.914265,-0.465842 0.914265,-0.465842 z"
       inkscape:connector-curvature="0" />
    <path
       style="opacity:0.98999999;fill:#505050;fill-opacity:1;stroke:#000000;stroke-width:1;stroke-miterlimit:4;stroke-dasharray:none;stroke-opacity:1"
       id="path4542"
       d="m 44.101988,33.909886 c 1.094298,-0.06324 2.179682,-0.225108 3.270607,-0.330745 1.91757,-0.16057 3.843118,-0.178427 5.766067,-0.206968 0.683723,-0.0098 1.367494,-0.01548 2.051259,-0.02114 0.352578,-0.0029 0.694793,-0.0077 1.044625,-0.04978 0.192961,-0.03225 0.385821,-0.06325 0.579745,-0.08899 0,0 -0.819071,0.612394 -0.819071,0.612394 v 0 c -0.192124,0.02745 -0.383693,0.05858 -0.576382,0.08198 -1.014171,0.08425 -2.036974,-0.01712 -3.052907,0.02841 -1.924265,0.01897 -3.851045,0.04698 -5.768878,0.219374 -1.109935,0.113157 -2.213453,0.286972 -3.32686,0.359791 0,0 0.831795,-0.604335 0.831795,-0.604335 z"
       inkscape:connector-curvature="0" />
    <path
       style="opacity:0.98999999;fill:#505050;fill-opacity:1;stroke:#000000;stroke-width:1;stroke-miterlimit:4;stroke-dasharray:none;stroke-opacity:1"
       id="path4544"
       d="m 67.778965,33.758266 c -0.592831,5.3e-4 -1.173826,-0.133442 -1.754941,-0.23483 -0.643057,-0.101259 -1.288802,-0.172173 -1.938417,-0.212337 -0.426538,-0.02492 -0.853848,-0.02787 -1.28097,-0.02841 -0.17081,0.02739 -0.351247,0.06224 -0.509296,0.136655 -0.0738,0.03475 -0.284025,0.160565 -0.212318,0.121682 0.649489,-0.352171 0.82268,-0.484183 0.348359,-0.157118 -0.421879,0.314992 -0.829856,0.651738 -1.201526,1.025168 -0.203893,0.19921 -0.265721,0.452755 -0.293809,0.725908 -0.02238,0.288264 -0.02474,0.573024 0.07605,0.846497 0.189444,0.311211 0.567261,0.378876 0.900168,0.441738 0.368472,0.04926 0.741302,0.04513 1.112261,0.04512 0.334187,-0.0016 0.668366,-0.0039 1.002551,-0.0054 0.363344,1.85e-4 0.726689,3.9e-5 1.090033,-4.5e-5 0.307864,-0.02936 0.598136,0.04842 0.889865,0.13571 0.348541,0.08508 0.694873,0.180895 1.038871,0.282765 0.31442,0.107453 0.545999,0.369626 0.77139,0.603703 0.213093,0.254894 0.381196,0.547134 0.543065,0.836771 0.13775,0.285337 0.236919,0.585592 0.285845,0.89835 0.03744,0.283753 0.03697,0.570241 0.03866,0.855853 0.0082,0.325271 -0.176628,0.562909 -0.38399,0.791856 -0.578125,0.492127 -1.239012,0.917591 -1.945849,1.194308 -0.52075,0.164703 -1.065649,0.232875 -1.606521,0.293597 -0.528249,0.04341 -1.033584,0.213929 -1.555015,0.302726 -0.344633,0.05322 -0.692705,0.07247 -1.040934,0.07765 -0.346726,0.02965 -0.682112,-0.03688 -1.021908,-0.09399 -0.354044,-0.07648 -0.707244,-0.137747 -1.047816,-0.263649 -0.312026,-0.129021 -0.555202,-0.371972 -0.821669,-0.572934 -0.376682,-0.254929 -0.646909,-0.606266 -0.888659,-0.98429 -0.04401,-0.06235 -0.08802,-0.124711 -0.132024,-0.187065 0,0 0.877334,-0.517211 0.877334,-0.517211 v 0 c 0.04492,0.0637 0.08985,0.127397 0.134771,0.191096 0.245208,0.387395 0.490032,0.689829 0.874078,0.950452 0.258715,0.195649 0.496355,0.431205 0.804677,0.546925 0.337365,0.116459 0.687271,0.175951 1.03578,0.249907 0.336892,0.05626 0.67147,0.102103 1.014169,0.07613 0.343324,-0.0086 0.686769,-0.02877 1.025898,-0.08621 0.518279,-0.09485 1.024864,-0.255932 1.55247,-0.293553 0.53776,-0.06659 1.08214,-0.134329 1.594257,-0.320005 0.425455,-0.191217 0.380913,-0.18042 -0.454372,0.29438 -0.06689,0.03802 0.131792,-0.0795 0.196141,-0.121679 0.159854,-0.104767 0.30697,-0.22592 0.459121,-0.341146 0.200808,-0.206663 0.409805,-0.414369 0.415425,-0.720894 -1.06e-4,-0.281117 -7.9e-5,-0.563047 -0.03121,-0.842817 -0.04349,-0.301924 -0.133834,-0.591921 -0.266279,-0.867307 -0.155779,-0.282654 -0.323861,-0.564372 -0.529373,-0.813385 -0.217686,-0.221675 -0.435949,-0.468511 -0.742797,-0.559368 -0.345231,-0.09949 -0.690493,-0.199345 -1.040444,-0.281073 -0.286629,-0.07861 -0.569984,-0.14156 -0.870159,-0.114567 -0.36412,6.9e-5 -0.72824,-10e-6 -1.092354,0.0021 -0.333367,7.94e-4 -0.666731,0.003 -1.000101,0.003 -0.375536,-0.0013 -0.753708,0.0013 -1.12522,-0.06118 -0.365638,-0.08144 -0.75724,-0.180078 -0.95618,-0.528185 -0.111144,-0.286805 -0.120714,-0.581117 -0.100502,-0.886166 0.02302,-0.287012 0.06715,-0.571616 0.270226,-0.791919 0.367652,-0.385477 0.786705,-0.719204 1.20518,-1.047263 0.576583,-0.409438 0.321159,-0.238755 1.384618,-0.850384 0.233158,-0.134096 0.490175,-0.208259 0.758176,-0.223057 0.425236,0.0033 0.850723,0.01172 1.275091,0.04047 0.650923,0.04693 1.298562,0.119528 1.943187,0.222329 0.581155,0.103773 1.16472,0.231495 1.758739,0.210249 0,0 -0.831795,0.604332 -0.831795,0.604332 z"
       inkscape:connector-curvature="0" />
    <path
       style="opacity:0.98999999;fill:#505050;fill-opacity:1;stroke:#000000;stroke-width:1;stroke-miterlimit:4;stroke-dasharray:none;stroke-opacity:1"
       id="path4546"
       d="m 80.531535,33.383876 c -0.469723,-0.253363 -0.980652,-0.42087 -1.499267,-0.540189 -0.467177,-0.126786 -0.946568,-0.180838 -1.428302,-0.208648 -0.332497,-0.01595 -0.665449,-0.01527 -0.998226,-0.01368 -0.327583,6.1e-5 -0.655164,0.0011 -0.982747,0.0016 -0.569328,0.110781 -1.098457,0.344377 -1.60683,0.616241 1.271301,-0.77185 0.547973,-0.318156 0.287996,-0.106518 -0.162134,0.131984 -0.317392,0.269605 -0.468871,0.413551 -0.266287,0.254432 -0.481518,0.5529 -0.649528,0.879494 -0.136038,0.282519 -0.148714,0.596466 -0.159401,0.904023 -0.0057,0.31854 -0.0019,0.637146 -0.0016,0.955715 0.03027,0.212299 -0.06374,0.527325 0.05513,0.716684 0.01791,0.02855 0.04474,0.05045 0.06711,0.07567 0.135596,0.10781 0.309287,0.115319 0.471151,0.158602 0.564862,0.151043 -0.16374,-0.03931 0.407625,0.109109 0.486116,0.109109 0.967883,0.22823 1.462754,0.291521 0.459005,0.06267 0.918102,0.0059 1.372558,-0.061 0.30308,-0.04537 0.609063,-0.06301 0.915056,-0.07198 0.282533,-0.0208 0.561039,0.03256 0.841381,0.0573 0.31946,0.0082 0.617892,0.131345 0.918749,0.225555 0.234419,0.07958 0.42427,0.246171 0.611992,0.402071 0.193741,0.220152 0.410348,0.413184 0.626129,0.610373 0.236619,0.229814 0.492006,0.439304 0.71011,0.687425 0.192944,0.25995 0.216834,0.551928 0.157789,0.860149 -0.112379,0.374164 -0.378965,0.664266 -0.691245,0.885513 -0.742402,0.521293 -1.381601,0.764231 -2.218195,0.960162 -0.405284,0.06732 -0.779537,0.241274 -1.169866,0.361218 -0.329509,0.09755 -0.670121,0.132386 -1.01133,0.157514 -0.336703,0.02297 -0.674267,0.02355 -1.011566,0.02426 -0.308864,2.65e-4 -0.617725,-5.29e-4 -0.926589,-1.53e-4 -0.284991,-5.29e-4 -0.569984,-5.29e-4 -0.854977,-7.94e-4 -0.321554,0.01913 -0.623258,-0.07912 -0.923655,-0.179332 -0.153985,-0.0482 -0.308113,-0.09942 -0.466656,-0.13113 -0.07746,-0.01548 -0.231016,-0.03216 -0.306351,-0.05686 -0.05579,-0.01828 -0.107421,-0.04742 -0.161129,-0.07113 -0.228155,-0.160272 -0.525216,-0.234844 -0.726318,-0.434721 -0.03702,-0.0368 -0.06443,-0.08215 -0.09664,-0.123227 -0.02053,-0.04452 -0.04106,-0.08904 -0.06158,-0.133551 0,0 0.894934,-0.504357 0.894934,-0.504357 v 0 c 0.0159,0.03712 0.03178,0.07424 0.04767,0.111366 0.204176,0.249523 0.518882,0.35806 0.792956,0.514725 0.30217,0.109731 0.629637,0.13085 0.929505,0.25363 0.296233,0.0934 0.593074,0.172299 0.907468,0.151429 0.285306,5e-6 0.570608,1.14e-4 0.855914,2.25e-4 0.307872,0.0011 0.615744,0.0021 0.923618,0.0016 0.335299,-0.0016 0.670917,-0.0048 1.005462,-0.02955 0.33828,-0.02965 0.675198,-0.0739 0.999984,-0.177781 0.387006,-0.124987 0.765075,-0.282007 1.168168,-0.350909 0.227713,-0.05586 0.454525,-0.111424 0.676597,-0.187495 0.07122,-0.02439 0.142,-0.05019 0.211746,-0.07851 0.07555,-0.03068 0.291246,-0.144508 0.22397,-0.09842 -0.209764,0.143685 -0.435877,0.261911 -0.653817,0.392867 0.322225,-0.195461 0.578416,-0.454957 0.717913,-0.811337 0.07188,-0.275804 0.06408,-0.537594 -0.112657,-0.774748 -0.215109,-0.245073 -0.466723,-0.452956 -0.701802,-0.67819 -0.218927,-0.192524 -0.426477,-0.392692 -0.626502,-0.604936 -0.180856,-0.147037 -0.363553,-0.301021 -0.590471,-0.369805 -0.294732,-0.09681 -0.589756,-0.20293 -0.904144,-0.208254 -0.278059,-0.02604 -0.555287,-0.06912 -0.835523,-0.04589 -0.302813,0.01103 -0.605205,0.03302 -0.905071,0.07813 -0.45898,0.06096 -0.923104,0.102333 -1.384432,0.03525 -0.497067,-0.06994 -0.982244,-0.193069 -1.472223,-0.299958 -0.06696,-0.01746 -0.341506,-0.0893 -0.409583,-0.10613 -0.184452,-0.04561 -0.370428,-0.06909 -0.510919,-0.210129 -0.06821,-0.0852 -0.109426,-0.119092 -0.138369,-0.23004 -0.05248,-0.201194 0.01331,-0.423434 -0.01363,-0.627065 -0.0026,-0.319577 -0.0064,-0.639228 -5.29e-4,-0.958786 0.0087,-0.318389 0.0123,-0.645785 0.139927,-0.943454 0.161338,-0.337376 0.372034,-0.649007 0.639014,-0.912598 0.560874,-0.560454 1.189583,-0.984303 1.914758,-1.330944 0.519311,-0.265901 1.062448,-0.503902 1.645319,-0.584015 0.328274,-5.29e-4 0.656551,-0.0011 0.984822,-0.003 0.332203,7.94e-4 0.66466,0.0016 0.996304,0.02334 0.483788,0.03437 0.964192,0.09655 1.432883,0.226478 0.527402,0.129696 1.046676,0.305096 1.528612,0.558207 0,0 -0.862653,0.558152 -0.862653,0.558152 z"
       inkscape:connector-curvature="0" />
  </g>
</svg>
